<svg xmlns="http://www.w3.org/2000/svg" version="1.1" xmlns:xlink="http://www.w3.org/1999/xlink" xmlns:svgjs="http://svgjs.dev/svgjs" width="1000" height="179" viewBox="0 0 1000 179"><g transform="matrix(1,0,0,1,-0.606047000409319,-0.36409504300952733)"><svg viewBox="0 0 396 71" data-background-color="#c9efc7" preserveAspectRatio="xMidYMid meet" height="179" width="1000" xmlns="http://www.w3.org/2000/svg" xmlns:xlink="http://www.w3.org/1999/xlink"><g id="tight-bounds" transform="matrix(1,0,0,1,0.23999461815634504,0.14441758689204676)"><svg viewBox="0 0 395.52 70.71116482621592" height="70.71116482621592" width="395.52"><g><svg viewBox="0 0 500.22881353331377 89.43103277856133" height="70.71116482621592" width="395.52"><g transform="matrix(1,0,0,1,104.70881353331376,12.359860535966149)"><svg viewBox="0 0 395.52 64.71131170662903" height="64.71131170662903" width="395.52"><g><svg viewBox="0 0 395.52 64.71131170662903" height="64.71131170662903" width="395.52"><g><svg viewBox="0 0 395.52 64.71131170662903" height="64.71131170662903" width="395.52"><g transform="matrix(1,0,0,1,0,0)"><svg width="395.52" viewBox="4 -34.400001525878906 212.67999267578125 34.80000305175781" height="64.71131170662903" data-palette-color="#454545"><path d="M21.95-2.85L21.95 0 4 0 4-33.7 7.1-33.7 7.1-2.85 21.95-2.85ZM31.05-33.7L31.05 0 27.95 0 27.95-33.7 31.05-33.7ZM55.5-18L55.5-15.15 42.4-15.15 42.4 0 39.3 0 39.3-33.7 57.25-33.7 57.25-30.85 42.4-30.85 42.4-18 55.5-18ZM81.74-2.85L81.74 0 63.49 0 63.49-33.7 81.44-33.7 81.44-30.85 66.59-30.85 66.59-18.25 79.69-18.25 79.69-15.4 66.59-15.4 66.59-2.85 81.74-2.85ZM128.14-17L128.14-17Q128.14-9 124.19-4.3 120.24 0.4 113.44 0.4L113.44 0.4Q106.74 0.4 102.66-4.35 98.59-9.1 98.59-17L98.59-17Q98.59-24.95 102.56-29.68 106.54-34.4 113.34-34.4L113.34-34.4Q120.34-34.4 124.24-29.73 128.14-25.05 128.14-17ZM101.79-17L101.79-17Q101.79-10.35 104.96-6.48 108.14-2.6 113.44-2.6L113.44-2.6Q118.94-2.6 121.94-6.43 124.94-10.25 124.94-17L124.94-17Q124.94-23.8 121.91-27.6 118.89-31.4 113.34-31.4L113.34-31.4Q107.94-31.4 104.86-27.58 101.79-23.75 101.79-17ZM150.84-18L150.84-15.15 137.74-15.15 137.74 0 134.64 0 134.64-33.7 152.59-33.7 152.59-30.85 137.74-30.85 137.74-18 150.84-18ZM174.73-13.35L173.78 0 170.68 0 173.03-33.7 177.28-33.7 181.68-21.35 187.63-4.2Q191.08-13.7 193.93-21.35L193.93-21.35 198.53-33.7 202.78-33.7 205.63 0 202.53 0 201.38-13.35 200.03-29.65Q197.03-21.3 194.08-13.35L194.08-13.35 189.43-0.85 185.78-0.85 181.38-13.35 175.78-29.3Q175.33-21.75 174.73-13.35L174.73-13.35ZM216.68-33.7L216.68 0 213.58 0 213.58-33.7 216.68-33.7Z" opacity="1" transform="matrix(1,0,0,1,0,0)" fill="#454545" class="undefined-text-0" data-fill-palette-color="primary" id="text-0"></path></svg></g></svg></g></svg></g></svg></g><g><svg viewBox="0 0 89.43202591085961 89.43103277856133" height="89.43103277856133" width="89.43202591085961"><g><svg xmlns="http://www.w3.org/2000/svg" xmlns:xlink="http://www.w3.org/1999/xlink" version="1.1" x="0" y="0" viewBox="4.9670000076293945 5 90.0009994506836 90" enable-background="new 0 0 100 100" xml:space="preserve" height="89.43103277856133" width="89.43202591085961" class="icon-icon-0" data-fill-palette-color="accent" id="icon-0"><g fill="#454545" data-fill-palette-color="accent"><polygon points="81.588,69.219 76.042,77.733 49.901,5 30.566,58.797 24.486,43.546 4.967,95 17.555,95 45,95 64.794,95 82.249,95    94.968,95  " fill="#454545" data-fill-palette-color="accent"></polygon></g></svg></g></svg></g></svg></g><defs></defs></svg><rect width="395.52" height="70.71116482621592" fill="none" stroke="none" visibility="hidden"></rect></g></svg></g></svg>